<?xml version="1.0" encoding="utf-8"?>
<!-- Generator: Adobe Illustrator 16.0.0, SVG Export Plug-In . SVG Version: 6.00 Build 0)  -->
<!DOCTYPE svg PUBLIC "-//W3C//DTD SVG 1.0//EN" "http://www.w3.org/TR/2001/REC-SVG-20010904/DTD/svg10.dtd">
<svg version="1.0" id="Layer_1" xmlns="http://www.w3.org/2000/svg" xmlns:xlink="http://www.w3.org/1999/xlink" x="0px" y="0px"
	 width="64px" height="64px" viewBox="0 0 64 64" enable-background="new 0 0 64 64" xml:space="preserve">
<g>
	<path fill="#231F20" d="M60,0H4C1.789,0,0,1.789,0,4v56c0,2.211,1.789,4,4,4h56c2.211,0,4-1.789,4-4V4C64,1.789,62.211,0,60,0z
		 M56,56H8V40h8v4c0,2.211,1.789,4,4,4h24c2.211,0,4-1.789,4-4v-4h8V56z M56,32H44c-2.211,0-4,1.789-4,4v4H24v-4
		c0-2.211-1.789-4-4-4H8V8h48V32z"/>
	<path fill="#231F20" d="M20,24h24c2.211,0,4-1.789,4-4s-1.789-4-4-4H20c-2.211,0-4,1.789-4,4S17.789,24,20,24z"/>
</g>
</svg>
