<?xml version="1.0" encoding="utf-8"?>
<!-- Generator: Adobe Illustrator 16.0.0, SVG Export Plug-In . SVG Version: 6.00 Build 0)  -->
<!DOCTYPE svg PUBLIC "-//W3C//DTD SVG 1.0//EN" "http://www.w3.org/TR/2001/REC-SVG-20010904/DTD/svg10.dtd">
<svg version="1.0" id="Layer_1" xmlns="http://www.w3.org/2000/svg" xmlns:xlink="http://www.w3.org/1999/xlink" x="0px" y="0px"
	 width="64px" height="64px" viewBox="0 0 64 64" enable-background="new 0 0 64 64" xml:space="preserve">
<g>
	<path fill="#231F20" d="M60,0H4C1.789,0,0,1.789,0,4v56c0,2.211,1.789,4,4,4h56c2.211,0,4-1.789,4-4V4C64,1.789,62.211,0,60,0z
		 M4,6c0-1.105,0.895-2,2-2h52c1.105,0,2,0.895,2,2v30H44c-1.105,0-2,0.895-2,2v6H22v-6c0-1.105-0.895-2-2-2H4V6z M60,58
		c0,1.105-0.895,2-2,2H6c-1.105,0-2-0.895-2-2V40h14v6c0,1.105,0.895,2,2,2h24c1.105,0,2-0.895,2-2v-6h14V58z"/>
	<path fill="#231F20" d="M14,16h36c1.105,0,2-0.895,2-2s-0.895-2-2-2H14c-1.105,0-2,0.895-2,2S12.895,16,14,16z"/>
	<path fill="#231F20" d="M52,26c0-1.105-0.895-2-2-2H14c-1.105,0-2,0.895-2,2s0.895,2,2,2h36C51.105,28,52,27.105,52,26z"/>
</g>
</svg>
